PathFileType	4	(X/Y/Z)	../Python\running\Running07\task.trc
DataRate	CameraRate	NumFrames	NumMarkers	Units	OrigDataRate	OrigDataStartFrame	OrigNumFrames
200.000000	200.000000	4	30	mm	200.000000	132	177
Frame#	Time	C7			RBAK			CLAV			STRN			RASI			LASI			PE01			RTH1			RTH2			RTH3			RTB2			RHEE			RD5M			RTOE			LTH2			LTH3			LTB2			LTB3			LHEE			LTOE			LD5M			LPSI			RPSI			RTB1			RTB3			T10			PE03			PE02			LTH1			LTB1			
		X1	Y1	Z1	X2	Y2	Z2	X3	Y3	Z3	X4	Y4	Z4	X5	Y5	Z5	X6	Y6	Z6	X7	Y7	Z7	X8	Y8	Z8	X9	Y9	Z9	X10	Y10	Z10	X11	Y11	Z11	X12	Y12	Z12	X13	Y13	Z13	X14	Y14	Z14	X15	Y15	Z15	X16	Y16	Z16	X17	Y17	Z17	X18	Y18	Z18	X19	Y19	Z19	X20	Y20	Z20	X21	Y21	Z21	X22	Y22	Z22	X23	Y23	Z23	X24	Y24	Z24	X25	Y25	Z25	X26	Y26	Z26	X27	Y27	Z27	X28	Y28	Z28	X29	Y29	Z29	X30	Y30	Z30	

133	0.66	603.0345458984377	1326.195678710938	177.2512207031251	565.2521972656252	1220.993896484375	288.7236938476564	721.0449829101565	1223.017700195313	159.6237335205079	753.6291503906252	1025.708374023438	147.0736236572266	673.217468261719	839.5380859375005	298.7524719238282	696.2518310546877	825.4531250000005	72.04515075683597	511.9056396484377	941.0649414062505	170.5875549316407	539.6523437500002	563.959655761719	320.7383422851564	538.6897583007815	486.4875793457034	301.2655334472657	578.2325439453127	533.2407836914065	311.527313232422	402.2622680664065	260.272918701172	275.7432861328126	238.6774291992189	99.28636932373053	180.9797515869141	366.2080688476564	21.35483932495118	248.5863800048829	407.6406250000002	28.24693870544435	198.0062103271486	737.5886840820315	535.5931396484377	49.10257339477542	781.6123046875005	597.9404907226565	27.60456657409669	639.164489746094	298.3285522460939	53.88029479980472	688.6539306640627	295.4362792968751	57.66542053222659	496.8926391601565	169.9283142089844	103.8850097656251	651.8128662109377	84.4365158081055	79.3658142089844	618.6248779296877	98.76587677001959	32.35174942016603	500.5620727539065	903.6715698242192	129.1402893066407	493.299499511719	912.464477539063	214.0484619140626	462.395446777344	272.3056030273439	271.8418579101564	410.8775634765627	213.5457000732423	257.3970642089845	541.648376464844	1037.6611328125	165.5163116455079	483.6980285644534	886.390258789063	142.3552856445313	475.8607482910159	889.6770629882817	191.8809509277344	732.5009765625002	592.7991943359377	27.20995712280275	693.031433105469	356.9602050781251	48.49082183837893	
134	0.665	619.531921386719	1329.791015625	176.3455200195313	584.139831542969	1225.808471679688	289.6900329589845	737.6076660156252	1227.233276367188	157.2322998046876	770.1997680664067	1029.72119140625	145.4875640869141	690.8524169921877	841.7520141601567	298.9639587402345	713.4692993164065	829.9901733398442	72.07602691650393	529.4749145507815	944.3032226562505	172.9240112304688	550.521911621094	568.0739746093752	319.4853820800782	547.8672485351565	490.7285461425784	299.7478637695314	588.4385375976565	536.6297607421877	309.7771301269532	407.2393188476565	266.0941467285157	275.233367919922	244.2455291748048	106.979362487793	181.1882019042969	366.9181213378907	22.26936340332032	248.3998107910157	407.4468078613284	28.0244827270508	197.9587554931642	757.2495727539065	541.3450317382815	50.95769500732425	800.2252807617192	603.9217529296877	28.10590171813966	667.3388671875002	294.994354248047	53.56126403808597	716.951599121094	294.7415466308595	57.43444824218753	531.7025146484377	159.3818817138672	102.1820068359376	690.6422119140627	80.79054260253909	79.41948699951175	657.255065917969	93.46274566650393	32.0387420654297	517.6805419921877	907.3613281250005	130.9738769531251	510.9113769531252	915.4238891601567	215.9380493164064	467.4161682128909	278.0031738281251	271.2569580078126	415.7378540039065	219.2393341064454	257.3042907714845	558.8176879882815	1041.049072265625	168.3219299316407	501.0643310546877	890.2529907226567	143.6659393310547	493.1408386230471	892.659301757813	193.2393798828126	751.2047119140627	598.2588500976565	28.40910148620607	718.122985839844	356.3720092773439	48.50989151000979	
135	0.67	636.0705566406252	1333.43505859375	175.392318725586	603.0374755859377	1230.736694335938	290.5192871093751	754.1760864257815	1231.510009765625	154.8518524169922	786.837768554688	1033.802978515625	143.9559783935547	708.5826416015627	844.0311889648442	299.1817321777345	730.8168945312502	834.6356811523442	72.21186065673831	547.2461547851565	947.615112304688	175.2401123046876	561.9153442382815	572.3208007812502	318.214080810547	557.7330322265627	495.1174011230471	298.2438049316407	599.2273559570315	540.2053222656252	308.000457763672	412.6781005859377	272.2525634765626	274.7503356933595	250.8756713867189	114.9338150024415	181.2685852050782	367.8097534179689	23.2959327697754	248.2191009521486	407.335876464844	27.81220817565919	197.8869781494142	776.4048461914067	546.9566650390627	52.76856613159183	818.6504516601567	609.6300048828127	28.86056327819826	695.6052856445315	291.5848999023439	53.27837753295901	745.1799926757815	294.0108947753907	57.27537918090823	567.059020996094	149.2743377685547	100.6981430053712	729.497009277344	77.27447509765628	79.82305145263675	696.0288085937502	88.35163116455081	32.02656555175783	534.9834594726565	911.1657104492192	132.7817382812501	528.679626464844	918.5097656250005	217.8177185058595	472.8755798339846	284.1475524902345	270.7781066894532	421.1525878906252	225.2692108154298	257.3524475097657	576.0755615234377	1044.509521484375	171.1937408447266	518.5989379882815	894.2478027343755	144.9528350830079	510.5469055175784	895.772827148438	194.5624084472657	769.6666870117192	603.6285400390627	29.70518684387208	743.107849121094	355.5581665039064	48.48460769653323	
136	0.675	652.6524047851565	1337.0908203125	174.3974761962891	621.9415283203127	1235.73779296875	291.212371826172	770.7483520507817	1235.808227539063	152.4886016845704	803.5432739257817	1037.924438476563	142.4796600341797	726.3818969726565	846.336791992188	299.4078674316407	748.2844238281252	839.3557128906255	72.46266937255862	565.212097167969	950.9799804687505	177.5181884765626	573.781921386719	576.6619873046877	316.939422607422	568.1619262695315	499.6084899902346	296.7769775390626	610.5157470703127	543.8920898437502	306.2413330078126	418.6067810058596	278.680877685547	274.290985107422	258.6016540527345	123.0722274780274	181.2281646728516	368.9199523925782	24.45412254333498	248.0343780517579	407.3730773925784	27.64425849914552	197.7886047363282	795.062377929688	552.3735961914065	54.45745849609378	836.9099121093755	615.0590820312502	29.92096328735353	723.968933105469	288.105194091797	53.02667999267581	773.3339233398442	293.2426147460939	57.18839263916018	602.9382324218752	139.6845703125001	99.47128295898443	768.3539428710942	73.86370849609378	80.54000091552737	734.903503417969	83.42452239990237	32.3014373779297	552.4646606445315	915.0637817382817	134.5541381835938	546.5974121093752	921.7073364257817	219.6746368408204	478.805358886719	290.6639709472657	270.4178771972657	427.1522521972659	231.5669555664064	257.5470581054689	593.4129638671877	1048.0166015625	174.1088409423829	536.2901611328127	898.3515014648442	146.2127532958985	528.0750122070315	899.0061645507817	195.8452758789064	787.9075317382817	608.881774902344	31.08310508728029	767.9942626953127	354.5083618164064	48.40846633911136	
